<svg width="51" height="22" viewBox="0 0 51 22" fill="none" xmlns="http://www.w3.org/2000/svg">
<path d="M7.32217 0.668353C10.9239 0.668353 14.2684 3.12432 14.2684 7.53921C14.2684 11.9541 10.9239 14.4101 7.32217 14.4101H4.12063V21.1347H0.0615234V0.668353H7.32217ZM7.32217 10.6676C9.20879 10.6676 10.4951 9.49813 10.4951 7.53921C10.4951 5.58028 9.20879 4.41077 7.32217 4.41077H4.12063V10.6676H7.32217ZM27.9635 17.3923H30.3933V21.1347H25.2193L22.1607 13.8838H19.245V21.1347H15.1859V0.668353H23.447C27.3346 0.668353 30.0788 3.29974 30.0788 7.27607C30.0788 10.2291 28.5352 12.4511 26.1626 13.3867L27.9635 17.3923ZM19.245 4.41077V10.1706H23.1612C24.7906 10.1706 26.3056 9.46889 26.3056 7.27607C26.3056 5.054 24.7906 4.41077 23.1612 4.41077H19.245ZM40.5484 21.4271C34.7742 21.4271 30.4292 16.7198 30.4292 10.9015C30.4292 5.08324 34.7742 0.375977 40.5484 0.375977C46.2654 0.375977 50.6104 5.08324 50.6104 10.9015C50.6104 16.7198 46.2654 21.4271 40.5484 21.4271ZM40.5484 17.3046C44.0358 17.3046 46.6942 14.4101 46.6942 10.9015C46.6942 7.39302 44.0358 4.49849 40.5484 4.49849C37.0324 4.49849 34.3454 7.39302 34.3454 10.9015C34.3454 14.4101 37.0324 17.3046 40.5484 17.3046Z" fill="#FEFEFE"/>
</svg>
